<?xml version="1.0" encoding="UTF-8" ?>
<!DOCTYPE svg PUBLIC "-//W3C//DTD SVG 1.1//EN" "http://www.w3.org/Graphics/SVG/1.1/DTD/svg11.dtd">
<svg width="936pt" height="647pt" viewBox="0 0 936 647" version="1.1" xmlns="http://www.w3.org/2000/svg">
<path fill="#ffffff" d=" M 0.00 0.00 L 936.00 0.00 L 936.00 647.00 L 0.00 647.00 L 0.00 0.00 Z" />
<path fill="#f9f9f9" d=" M 605.88 19.64 C 613.21 18.58 620.70 18.74 628.04 19.72 C 648.64 21.43 668.79 27.48 687.33 36.51 C 694.22 38.92 700.08 43.36 706.68 46.36 C 727.55 58.02 747.96 70.49 768.82 82.19 C 789.92 94.28 811.47 105.52 832.79 117.17 C 849.46 126.47 866.42 135.56 881.19 147.78 C 884.72 150.93 888.74 153.58 891.67 157.37 C 904.98 172.44 913.60 191.74 915.34 211.83 C 917.02 220.22 915.20 228.72 913.90 237.03 C 910.36 255.98 900.00 273.02 886.78 286.78 C 871.02 300.35 853.91 312.26 836.23 323.18 C 813.22 338.63 789.69 353.29 766.59 368.59 C 722.89 396.86 679.25 425.23 635.60 453.58 C 566.93 497.91 498.46 542.57 429.57 586.54 C 417.26 594.46 404.48 601.60 391.71 608.71 C 372.24 617.66 351.75 625.92 330.09 626.88 C 331.02 625.70 331.96 624.52 332.90 623.36 C 330.61 623.05 328.27 622.63 325.98 623.14 C 318.75 624.68 311.29 624.15 304.02 623.18 C 287.92 622.14 272.17 617.83 257.31 611.69 C 247.43 606.68 237.33 602.05 227.96 596.10 C 212.50 586.40 197.54 575.92 182.72 565.27 C 148.56 541.10 114.39 516.94 80.40 492.52 C 71.19 485.87 62.35 478.70 54.01 471.00 C 37.89 455.38 26.89 433.94 25.50 411.35 C 24.32 406.90 25.81 402.47 25.98 398.00 C 27.55 380.73 35.38 364.50 46.30 351.21 C 51.41 346.35 55.93 340.80 61.71 336.69 C 82.51 320.55 105.71 307.93 127.99 294.00 C 224.76 235.14 321.35 176.01 418.08 117.10 C 425.38 113.39 429.26 105.56 436.02 101.10 C 462.62 85.03 489.01 68.60 515.79 52.82 C 524.05 47.96 532.36 43.13 541.03 39.02 C 561.13 28.51 583.22 21.47 605.88 19.64 Z" />
<path fill="#b3b3b3" d=" M 588.24 48.24 C 600.26 41.33 614.07 37.28 628.00 37.79 C 639.53 38.44 651.03 41.34 661.21 46.85 C 674.03 54.25 686.68 61.96 699.42 69.49 C 748.17 98.83 797.16 127.78 846.00 156.98 C 853.64 161.21 860.98 166.86 865.08 174.76 C 868.08 180.48 867.27 187.61 863.52 192.80 C 861.34 194.90 859.15 196.99 856.95 199.06 C 852.82 202.97 847.61 205.39 843.08 208.75 C 842.00 209.47 840.94 210.22 839.89 210.95 C 712.93 292.77 585.54 373.93 458.38 455.44 C 428.91 474.29 399.40 493.07 369.90 511.88 C 368.59 512.65 367.31 513.47 366.02 514.29 C 355.08 521.22 343.19 527.19 330.29 529.28 C 312.08 533.04 292.75 527.82 277.66 517.30 C 218.44 476.27 159.56 434.76 100.43 393.60 C 90.70 386.93 80.17 380.15 74.68 369.29 C 72.34 365.30 72.65 360.53 71.23 356.25 C 72.15 350.17 76.38 345.46 80.05 340.81 C 81.26 339.43 82.88 338.50 84.41 337.51 C 97.99 328.94 112.13 321.31 126.02 313.24 C 244.03 245.56 362.08 177.95 480.04 110.19 C 516.08 89.49 552.09 68.75 588.24 48.24 Z" />
<path fill="#f6f6f8" d=" M 619.23 39.33 C 634.59 37.16 650.43 41.32 663.56 49.35 C 722.91 84.65 782.24 119.98 841.52 155.42 C 850.56 160.64 860.61 166.53 864.33 176.91 C 866.12 180.81 864.57 185.08 862.59 188.58 C 859.68 193.62 854.74 196.95 850.07 200.18 C 688.52 304.04 526.64 407.38 364.84 510.84 C 350.72 520.16 334.14 526.70 317.00 526.31 C 303.44 526.45 290.10 521.79 279.05 514.05 C 217.79 471.33 156.43 428.75 95.39 385.71 C 86.50 379.47 77.00 372.04 74.23 360.99 C 72.50 356.00 75.41 351.07 78.00 346.98 C 83.37 339.49 91.54 334.73 99.33 330.14 C 261.42 237.26 423.49 144.35 585.53 51.38 C 595.81 45.18 607.24 40.65 619.23 39.33 Z" />
<path fill="#ececec" d=" M 699.42 69.49 C 701.75 69.07 703.78 70.30 705.68 71.48 C 734.46 88.53 763.41 105.33 792.92 121.10 C 812.08 131.83 831.85 141.60 850.02 154.03 C 854.78 157.29 859.87 160.05 864.55 163.44 C 878.01 174.44 887.37 190.02 891.29 206.93 C 895.45 220.13 891.66 234.08 886.40 246.37 C 881.49 257.59 874.26 267.97 864.45 275.43 C 860.56 277.75 856.94 280.48 853.58 283.51 C 840.00 293.87 825.45 302.85 811.35 312.45 C 752.54 350.58 693.73 388.69 634.99 426.92 C 628.07 430.92 621.75 435.86 614.80 439.82 C 606.99 445.06 599.16 450.27 591.14 455.19 C 584.35 460.19 576.85 464.09 570.00 469.01 C 527.43 496.46 484.98 524.06 442.34 551.41 C 426.28 561.73 410.24 572.10 393.67 581.61 C 388.78 583.96 384.39 587.26 379.31 589.24 C 370.55 592.85 362.12 597.32 353.06 600.16 C 341.00 603.48 328.63 606.46 316.04 605.99 C 299.45 606.57 282.85 602.86 267.65 596.31 C 261.42 594.38 256.22 590.31 250.31 587.69 C 237.92 581.10 226.50 572.90 214.78 565.23 C 185.89 544.81 157.03 524.36 128.22 503.83 C 114.06 494.03 100.15 483.89 86.37 473.59 C 83.91 471.72 82.23 469.05 79.72 467.25 C 74.39 463.68 70.38 458.60 65.74 454.25 C 62.17 450.72 59.23 446.61 56.69 442.30 C 54.80 438.98 51.77 436.44 50.18 432.94 C 46.50 425.14 44.93 416.55 44.00 408.03 C 44.74 398.39 46.31 388.51 50.76 379.81 C 55.76 373.03 60.18 365.70 66.07 359.63 C 65.98 362.11 66.04 364.60 66.03 367.10 C 66.02 367.51 66.02 368.34 66.02 368.75 C 65.98 372.05 65.88 375.34 65.89 378.65 C 58.94 385.91 55.45 396.10 54.73 406.01 C 54.84 414.89 57.53 423.85 62.97 430.95 C 66.26 436.82 71.62 441.00 76.14 445.85 C 80.44 450.27 85.56 453.75 90.10 457.91 C 100.70 467.88 112.83 476.01 124.73 484.31 C 154.80 505.95 185.15 527.17 215.29 548.71 C 227.21 556.90 238.74 565.81 251.71 572.33 C 260.93 577.80 270.45 582.84 280.55 586.50 C 294.21 591.03 308.68 593.06 323.05 592.20 C 339.49 590.81 355.40 585.59 370.05 578.12 C 386.33 571.25 401.05 561.37 415.92 551.95 C 537.71 473.54 659.18 394.60 780.69 315.76 C 788.04 311.10 795.17 306.12 802.63 301.63 C 812.63 294.54 823.41 288.64 833.21 281.26 C 839.41 277.24 844.53 271.86 850.60 267.67 C 858.15 262.35 864.41 255.49 870.67 248.76 C 877.23 239.59 881.74 228.33 881.24 216.92 C 880.13 208.24 877.37 199.58 872.00 192.56 C 871.76 192.96 871.27 193.77 871.03 194.18 C 869.93 193.21 868.85 192.26 867.78 191.30 C 866.38 192.51 864.96 193.70 863.55 194.88 L 863.52 192.80 C 867.27 187.61 868.08 180.48 865.08 174.76 C 860.98 166.86 853.64 161.21 846.00 156.98 C 797.16 127.78 748.17 98.83 699.42 69.49 Z" />
<path fill="#212024" d=" M 563.85 80.84 C 566.77 78.93 570.70 76.66 573.99 79.18 C 650.12 124.70 726.34 170.10 802.42 215.70 C 804.94 216.84 803.66 219.68 801.57 220.44 C 664.34 307.95 527.12 395.49 389.89 483.00 C 387.89 484.23 385.15 484.39 383.18 483.03 C 308.06 431.81 233.02 380.47 158.01 329.09 C 154.72 326.77 151.15 324.77 148.33 321.85 C 150.54 319.00 154.01 317.70 156.99 315.86 C 292.61 237.51 428.25 159.21 563.85 80.84 Z" />
<path fill="#ffffff" d=" M 566.94 86.43 C 567.73 86.39 569.30 86.33 570.08 86.29 C 572.49 87.19 571.42 89.01 569.59 89.88 C 567.85 89.40 565.05 88.68 566.94 86.43 Z" />
<path fill="#ffffff" d=" M 573.44 89.14 C 574.68 89.53 575.91 89.96 577.14 90.42 C 575.87 92.18 573.91 92.58 571.83 92.38 C 571.63 91.87 571.22 90.84 571.02 90.32 C 571.63 90.03 572.84 89.43 573.44 89.14 Z" />
<path fill="#fcfcfc" d=" M 575.52 93.46 C 577.33 91.96 579.51 92.27 581.61 92.77 L 581.08 94.53 C 582.93 94.47 584.69 94.84 586.39 95.59 C 586.36 96.06 586.31 97.01 586.29 97.48 C 585.12 97.95 583.97 98.42 582.84 98.92 C 580.83 96.49 577.82 95.48 575.52 93.46 Z" />
<path fill="#18171b" d=" M 582.18 96.26 C 583.54 95.41 584.37 95.60 584.69 96.83 C 583.51 97.69 582.67 97.50 582.18 96.26 Z" />
<path fill="#8b8c8c" d=" M 588.11 98.52 C 588.59 96.77 592.20 98.96 591.09 100.46 C 589.83 100.70 588.81 99.38 588.11 98.52 Z" />
<path fill="#504f52" d=" M 586.02 101.75 C 585.68 100.33 583.85 98.56 586.39 97.65 C 587.39 99.16 588.53 100.59 589.43 102.17 C 588.94 101.89 587.97 101.34 587.48 101.06 C 587.12 101.23 586.39 101.57 586.02 101.75 Z" />
<path fill="#f5f5f5" d=" M 591.19 105.05 C 592.89 103.61 594.78 102.42 596.71 101.32 C 597.96 102.10 599.37 102.77 600.24 104.03 C 599.41 104.62 597.77 105.80 596.94 106.39 C 598.58 107.15 599.98 105.87 601.45 105.33 C 603.05 105.08 604.58 105.77 606.00 106.44 C 604.27 106.36 602.44 105.75 600.80 106.56 C 601.44 107.10 602.72 108.19 603.36 108.73 C 602.73 108.38 601.45 107.69 600.81 107.34 C 600.17 108.08 600.40 109.01 600.54 109.87 L 600.36 110.46 C 599.99 110.13 599.24 109.47 598.87 109.14 C 598.02 108.40 597.23 107.64 596.43 106.87 C 594.66 106.32 592.92 105.69 591.19 105.05 Z" />
<path fill="#09090a" d=" M 596.33 103.02 C 597.49 102.19 598.19 102.48 598.43 103.88 C 597.24 104.75 596.54 104.46 596.33 103.02 Z" />
<path fill="#505050" d=" M 679.34 103.46 C 681.56 102.81 685.25 103.31 685.66 106.07 C 684.48 109.69 676.74 109.23 676.95 105.04 C 677.61 104.31 678.41 103.79 679.34 103.46 Z" />
<path fill="#000000" d=" M 593.45 104.21 C 593.85 104.21 594.64 104.20 595.04 104.20 L 595.13 104.96 C 594.73 104.97 593.92 104.98 593.52 104.99 L 593.45 104.21 Z" />
<path fill="#212024" d=" M 595.13 104.96 C 598.05 103.13 595.75 108.22 595.13 104.96 Z" />
<path fill="#ffffff" d=" M 602.31 111.53 C 603.80 109.56 606.20 108.54 608.47 107.73 C 606.83 109.34 604.83 110.50 602.94 111.75 C 604.34 111.98 605.47 112.62 606.34 113.67 C 604.92 113.09 603.51 112.47 602.31 111.53 Z" />
<path fill="#e7e7e7" d=" M 693.08 109.93 C 696.69 107.89 700.08 110.97 703.06 112.73 C 714.25 119.65 725.55 126.41 736.89 133.09 C 738.67 134.30 741.59 135.40 741.19 138.07 C 740.87 139.87 739.07 140.60 737.47 140.79 C 737.59 139.32 738.17 137.49 736.49 136.69 C 724.58 129.12 712.37 122.01 700.41 114.53 C 698.57 113.28 696.40 112.64 694.18 112.75 C 693.80 111.81 693.44 110.87 693.08 109.93 Z" />
<path fill="#f9f9f9" d=" M 606.69 114.05 C 608.71 112.60 610.83 111.30 613.05 110.18 C 612.77 110.57 612.21 111.35 611.93 111.74 C 610.45 112.55 609.02 113.47 607.89 114.73 C 608.75 114.91 610.46 115.29 611.32 115.48 C 609.56 116.41 608.04 114.98 606.69 114.05 Z" />
<path fill="#626262" d=" M 728.67 112.22 C 731.79 111.28 735.08 111.43 738.21 112.26 L 738.03 112.63 C 737.84 113.04 737.44 113.87 737.24 114.29 C 734.35 114.58 731.45 114.70 728.57 114.90 C 728.59 114.23 728.65 112.89 728.67 112.22 Z" />
<path fill="#21282c" d=" M 726.53 116.54 C 725.72 114.68 727.64 113.44 728.67 112.22 C 728.65 112.89 728.59 114.23 728.57 114.90 C 731.45 114.70 734.35 114.58 737.24 114.29 C 737.44 113.87 737.84 113.04 738.03 112.63 C 739.39 113.72 741.24 114.95 740.38 116.98 C 737.14 121.68 729.41 121.50 726.53 116.54 Z" />
<path fill="#0e0e0e" d=" M 693.31 116.92 C 691.09 115.80 692.14 113.32 694.18 112.75 C 696.40 112.64 698.57 113.28 700.41 114.53 C 712.37 122.01 724.58 129.12 736.49 136.69 C 738.17 137.49 737.59 139.32 737.47 140.79 C 734.77 140.98 731.96 140.92 729.70 139.25 C 717.58 131.79 705.37 124.47 693.31 116.92 Z" />
<path fill="#d7d8d7" d=" M 618.71 115.31 C 621.94 115.81 624.98 117.15 626.95 119.86 C 625.47 121.62 624.79 120.22 624.19 118.71 C 623.63 118.53 622.52 118.15 621.96 117.96 C 623.11 118.71 623.55 119.69 623.25 120.88 C 621.59 120.37 619.92 120.62 618.26 120.88 C 618.16 120.25 617.96 118.98 617.86 118.35 C 618.48 118.48 619.72 118.72 620.34 118.85 L 620.54 117.74 C 617.70 118.93 618.29 117.00 618.71 115.31 Z" />
<path fill="#25437a" d=" M 731.17 117.28 C 734.48 117.50 729.56 120.22 731.17 117.28 Z" />
<path fill="#2c6b90" d=" M 733.30 118.31 C 733.82 118.81 733.82 118.81 733.30 118.31 Z" />
<path fill="#b2b2b3" d=" M 659.24 141.45 C 659.84 141.99 659.84 141.99 659.24 141.45 Z" />
<path fill="#ffffff" d=" M 660.29 140.95 C 661.82 141.38 663.38 141.47 664.96 141.20 C 664.12 141.94 663.28 142.69 662.45 143.43 C 661.43 144.04 660.40 144.61 659.39 145.19 C 658.67 144.27 657.24 142.44 656.52 141.53 C 658.24 142.96 660.12 143.45 662.18 143.02 L 660.29 140.95 Z" />
<path fill="#c0c1c0" d=" M 665.19 142.91 C 666.80 142.14 667.53 144.88 665.96 145.33 C 664.34 146.02 663.66 143.40 665.19 142.91 Z" />
<path fill="#c7c7c7" d=" M 661.52 146.79 C 661.21 145.41 661.74 144.88 663.13 145.21 C 663.45 146.58 662.91 147.11 661.52 146.79 Z" />
<path fill="#e5e5e5" d=" M 667.32 147.34 C 667.26 143.84 672.58 145.05 672.98 147.59 C 671.82 148.87 670.01 148.87 668.48 149.27 L 668.62 147.81 C 669.24 147.95 670.48 148.23 671.10 148.37 C 670.88 147.71 670.44 146.39 670.22 145.72 C 669.49 146.13 668.04 146.94 667.32 147.34 Z" />
<path fill="#efeff0" d=" M 663.47 148.12 C 664.17 146.89 667.53 147.31 667.19 148.99 C 666.02 149.71 664.25 149.13 663.47 148.12 Z" />
<path fill="#ffffff" d=" M 669.93 152.96 C 671.35 151.48 672.96 150.18 674.44 148.74 C 675.09 148.71 676.41 148.66 677.06 148.63 C 674.92 150.43 672.55 151.97 669.93 152.96 Z" />
<path fill="#acacad" d=" M 667.01 150.19 C 667.62 150.71 667.62 150.71 667.01 150.19 Z" />
<path fill="#ffffff" d=" M 676.70 156.64 C 677.64 154.42 680.16 153.66 681.98 152.33 C 683.24 152.94 684.51 153.56 685.78 154.18 C 685.86 154.83 686.02 156.12 686.10 156.77 C 687.32 156.24 688.66 156.29 689.97 156.32 C 689.06 157.78 688.05 159.17 687.08 160.58 L 691.03 159.76 C 689.45 161.29 687.19 161.45 685.15 161.84 C 685.88 160.44 686.63 159.05 687.42 157.67 C 685.77 158.91 684.01 159.94 681.92 160.01 C 682.93 158.87 684.19 158.09 685.68 157.68 C 683.84 156.87 681.75 156.62 680.15 155.35 C 678.99 155.79 677.85 156.22 676.70 156.64 Z" />
<path fill="#010102" d=" M 681.37 154.86 C 681.77 153.30 684.41 153.81 684.88 155.09 C 684.37 156.40 681.85 156.06 681.37 154.86 Z" />
<path fill="#ffffff" d=" M 691.21 158.92 C 692.10 159.08 693.90 159.41 694.80 159.58 C 693.62 160.90 691.93 161.63 690.52 162.61 C 690.97 161.42 692.39 160.26 691.21 158.92 Z" />
<path fill="#ffffff" d=" M 689.45 162.05 C 690.16 162.62 690.16 162.62 689.45 162.05 Z" />
<path fill="#808080" d=" M 741.78 187.86 C 742.11 188.80 742.42 189.74 742.69 190.70 C 743.74 190.08 744.80 189.45 745.87 188.83 C 745.90 189.63 745.97 191.24 746.01 192.04 C 745.56 191.78 744.67 191.25 744.22 190.98 C 743.28 191.91 742.36 192.84 741.45 193.79 C 740.17 193.97 738.89 194.14 737.62 194.31 C 738.20 193.87 739.35 193.01 739.93 192.58 C 739.19 192.10 738.48 191.61 737.77 191.13 C 738.56 191.20 740.15 191.36 740.94 191.43 C 741.15 190.54 741.57 188.76 741.78 187.86 Z" />
<path fill="#c1c1c1" d=" M 863.55 194.88 C 864.96 193.70 866.38 192.51 867.78 191.30 C 868.85 192.26 869.93 193.21 871.03 194.18 C 870.14 195.61 869.25 197.04 868.31 198.42 C 867.10 197.28 865.91 196.13 864.72 194.98 C 861.77 198.48 858.54 201.79 854.72 204.33 C 851.80 206.14 848.93 208.06 846.42 210.42 C 845.96 209.78 845.49 209.16 845.03 208.55 C 844.54 208.60 843.57 208.70 843.08 208.75 C 847.61 205.39 852.82 202.97 856.95 199.06 C 859.15 196.99 861.34 194.90 863.52 192.80 L 863.55 194.88 Z" />
<path fill="#a5a7a6" d=" M 871.03 194.18 C 871.27 193.77 871.76 192.96 872.00 192.56 C 871.59 196.27 871.34 200.01 871.25 203.75 C 870.70 208.83 870.33 213.92 870.43 219.04 C 870.40 225.44 868.04 231.68 864.28 236.81 C 861.96 238.64 859.72 240.55 857.71 242.71 C 851.19 249.68 843.31 255.18 835.50 260.58 C 831.68 263.17 828.11 266.18 823.92 268.17 C 826.33 263.80 831.31 262.09 835.05 259.12 C 844.39 252.23 854.31 245.74 861.70 236.64 C 863.89 234.04 865.37 230.94 866.38 227.71 C 864.32 228.92 862.50 230.51 861.18 232.51 C 858.99 234.10 856.76 235.63 854.58 237.23 C 852.46 238.63 850.31 239.98 848.20 241.38 C 847.84 232.61 848.69 223.86 848.70 215.10 L 848.62 213.96 C 852.14 212.04 855.69 210.12 858.93 207.72 C 862.43 205.05 865.74 202.04 868.31 198.42 C 869.25 197.04 870.14 195.61 871.03 194.18 Z" />
<path fill="#d5d5d5" d=" M 872.00 192.56 C 877.37 199.58 880.13 208.24 881.24 216.92 C 881.74 228.33 877.23 239.59 870.67 248.76 C 864.41 255.49 858.15 262.35 850.60 267.67 C 844.53 271.86 839.41 277.24 833.21 281.26 C 823.41 288.64 812.63 294.54 802.63 301.63 C 795.17 306.12 788.04 311.10 780.69 315.76 C 659.18 394.60 537.71 473.54 415.92 551.95 C 401.05 561.37 386.33 571.25 370.05 578.12 C 355.40 585.59 339.49 590.81 323.05 592.20 C 308.68 593.06 294.21 591.03 280.55 586.50 C 270.45 582.84 260.93 577.80 251.71 572.33 C 238.74 565.81 227.21 556.90 215.29 548.71 C 185.15 527.17 154.80 505.95 124.73 484.31 C 112.83 476.01 100.70 467.88 90.10 457.91 C 85.56 453.75 80.44 450.27 76.14 445.85 C 71.62 441.00 66.26 436.82 62.97 430.95 C 57.53 423.85 54.84 414.89 54.73 406.01 C 55.45 396.10 58.94 385.91 65.89 378.65 C 65.97 382.29 65.91 385.94 65.85 389.59 C 60.83 396.90 59.80 406.49 62.02 414.96 C 64.06 420.74 66.56 426.57 70.75 431.15 C 75.91 437.08 82.44 441.57 88.14 446.94 C 96.45 453.28 104.87 459.49 113.16 465.88 C 146.07 489.30 179.02 512.65 211.96 536.03 C 222.51 543.52 232.95 551.20 243.94 558.05 C 252.36 564.24 261.36 569.63 270.66 574.40 C 279.14 578.87 288.47 581.48 297.83 583.35 C 306.81 584.75 315.97 585.77 325.02 584.36 C 338.69 583.41 351.77 578.80 364.07 572.99 C 390.61 558.85 415.60 542.09 440.91 525.93 C 562.20 447.65 683.26 369.05 804.34 290.44 C 810.45 286.12 817.07 282.57 823.04 278.04 C 831.46 271.74 840.74 266.62 848.73 259.75 C 853.35 255.70 858.75 252.51 862.66 247.70 C 869.22 239.88 874.71 230.41 875.07 219.97 C 875.33 214.30 873.25 208.94 871.25 203.75 C 871.34 200.01 871.59 196.27 872.00 192.56 Z" />
<path fill="#c5c5c7" d=" M 752.21 195.30 C 752.83 195.87 752.83 195.87 752.21 195.30 Z" />
<path fill="#4a4a4a" d=" M 854.72 204.33 C 858.54 201.79 861.77 198.48 864.72 194.98 C 865.91 196.13 867.10 197.28 868.31 198.42 C 865.74 202.04 862.43 205.05 858.93 207.72 C 857.51 206.59 856.11 205.46 854.72 204.33 Z" />
<path fill="#c3c3c3" d=" M 753.97 198.67 C 754.02 197.62 754.16 196.59 754.32 195.56 C 756.04 197.06 758.09 198.07 760.17 199.00 C 761.27 199.69 760.32 201.14 759.44 201.55 C 757.85 201.56 756.27 201.48 754.71 201.30 C 755.23 201.97 756.27 203.30 756.79 203.96 C 755.28 203.22 753.80 202.40 752.44 201.42 C 751.41 201.11 750.39 200.83 749.37 200.57 L 749.89 199.74 C 748.66 199.21 747.20 198.86 746.86 197.39 C 748.21 197.29 749.39 197.64 750.42 198.46 C 752.98 196.11 752.47 199.18 752.49 200.44 C 754.33 199.87 758.58 202.16 758.94 199.21 C 757.30 198.86 755.64 198.00 753.97 198.67 Z" />
<path fill="#d7d8d7" d=" M 760.08 201.93 C 761.34 203.41 763.96 203.12 763.69 200.71 C 764.09 201.09 764.91 201.85 765.31 202.23 C 764.55 202.99 763.81 203.78 763.10 204.59 C 765.00 204.32 767.29 203.19 769.13 204.45 C 768.42 204.41 766.99 204.33 766.28 204.29 C 766.65 205.79 766.62 207.22 765.20 208.11 C 764.36 207.97 762.67 207.67 761.83 207.53 C 762.15 206.57 762.92 205.67 762.72 204.59 C 762.15 204.29 761.01 203.70 760.44 203.40 L 760.74 205.71 C 760.43 205.51 759.81 205.11 759.51 204.90 C 759.00 205.12 758.00 205.56 757.50 205.78 C 758.43 205.11 759.37 204.47 760.34 203.84 C 760.27 203.36 760.14 202.40 760.08 201.93 Z" />
<path fill="#767676" d=" M 846.42 210.42 C 848.93 208.06 851.80 206.14 854.72 204.33 C 856.11 205.46 857.51 206.59 858.93 207.72 C 855.69 210.12 852.14 212.04 848.62 213.96 C 847.92 212.75 847.19 211.57 846.42 210.42 Z" />
<path fill="#bbbbbb" d=" M 871.25 203.75 C 873.25 208.94 875.33 214.30 875.07 219.97 C 874.71 230.41 869.22 239.88 862.66 247.70 C 858.75 252.51 853.35 255.70 848.73 259.75 C 840.74 266.62 831.46 271.74 823.04 278.04 C 817.07 282.57 810.45 286.12 804.34 290.44 C 683.26 369.05 562.20 447.65 440.91 525.93 C 415.60 542.09 390.61 558.85 364.07 572.99 C 351.77 578.80 338.69 583.41 325.02 584.36 C 315.97 585.77 306.81 584.75 297.83 583.35 C 288.47 581.48 279.14 578.87 270.66 574.40 C 261.36 569.63 252.36 564.24 243.94 558.05 C 232.95 551.20 222.51 543.52 211.96 536.03 C 179.02 512.65 146.07 489.30 113.16 465.88 C 104.87 459.49 96.45 453.28 88.14 446.94 C 82.44 441.57 75.91 437.08 70.75 431.15 C 66.56 426.57 64.06 420.74 62.02 414.96 C 59.80 406.49 60.83 396.90 65.85 389.59 C 66.17 397.85 64.45 406.45 67.54 414.39 C 71.21 424.25 79.71 431.05 87.50 437.62 C 100.81 449.52 115.61 459.57 130.16 469.85 C 162.27 492.75 194.48 515.49 226.59 538.39 C 238.26 546.44 249.62 554.96 261.70 562.41 C 268.56 566.42 275.32 570.74 282.97 573.12 C 304.72 581.81 329.48 580.45 351.10 572.06 C 364.36 566.72 376.58 559.21 388.59 551.55 C 395.80 547.58 402.56 542.89 409.59 538.62 C 416.97 533.52 425.00 529.44 432.38 524.32 C 537.12 456.84 641.61 388.98 746.13 321.14 C 761.45 311.13 776.92 301.33 792.14 291.17 C 801.73 285.55 810.56 278.77 820.11 273.09 C 831.60 265.36 843.33 257.88 853.75 248.72 C 858.01 245.48 861.97 241.73 864.28 236.81 C 868.04 231.68 870.40 225.44 870.43 219.04 C 870.33 213.92 870.70 208.83 871.25 203.75 Z" />
<path fill="#010102" d=" M 764.16 206.25 C 764.56 206.53 764.56 206.53 764.16 206.25 Z" />
<path fill="#ffffff" d=" M 768.00 211.01 C 769.41 209.37 771.46 208.51 773.23 207.31 C 779.25 209.06 783.90 213.43 789.64 215.79 C 789.51 217.01 789.43 218.24 789.23 219.46 C 787.07 220.13 784.87 220.86 782.58 220.75 C 780.87 218.02 777.42 217.64 775.09 215.65 C 772.89 213.85 770.01 213.02 768.00 211.01 Z" />
<path fill="#efeff0" d=" M 839.89 210.95 C 840.94 210.22 842.00 209.47 843.08 208.75 C 843.57 208.70 844.54 208.60 845.03 208.55 C 845.49 209.16 845.96 209.78 846.42 210.42 C 847.19 211.57 847.92 212.75 848.62 213.96 L 848.70 215.10 C 847.17 215.47 845.67 215.84 844.17 216.21 C 843.41 215.01 842.58 213.86 841.72 212.75 C 841.11 212.14 840.50 211.53 839.89 210.95 Z" />
<path fill="#212024" d=" M 772.34 212.44 C 774.27 211.84 775.96 210.71 777.44 209.35 C 781.63 211.36 785.22 214.45 789.58 216.18 C 788.90 217.40 788.03 218.46 787.04 219.42 C 782.91 220.28 779.83 217.39 776.38 215.70 C 774.84 214.87 773.58 213.65 772.34 212.44 Z" />
<path fill="#c9cac9" d=" M 458.38 455.44 C 585.54 373.93 712.93 292.77 839.89 210.95 C 840.50 211.53 841.11 212.14 841.72 212.75 C 838.62 214.75 835.30 216.39 832.36 218.61 C 832.22 220.61 833.92 222.10 834.83 223.74 C 831.80 225.81 828.75 227.85 825.58 229.69 C 824.50 228.00 823.02 225.05 820.58 226.63 C 794.14 243.67 767.53 260.48 741.07 277.51 C 630.78 348.24 520.41 418.86 409.89 489.24 C 407.27 490.92 404.69 492.66 402.06 494.30 C 399.85 495.71 397.50 496.96 395.59 498.78 C 395.05 500.57 395.24 502.49 395.14 504.35 C 394.73 504.61 393.91 505.15 393.50 505.42 C 391.86 506.35 390.12 507.11 388.40 507.87 C 388.24 506.15 388.08 504.44 387.92 502.75 C 385.41 503.99 382.96 505.35 380.65 506.95 C 377.84 508.90 374.94 510.81 371.71 512.00 C 371.26 511.97 370.35 511.91 369.90 511.88 C 399.40 493.07 428.91 474.29 458.38 455.44 Z" />
<path fill="#aeb0af" d=" M 832.36 218.61 C 835.30 216.39 838.62 214.75 841.72 212.75 C 842.58 213.86 843.41 215.01 844.17 216.21 C 844.72 225.22 843.47 234.22 843.74 243.23 L 844.85 243.55 C 828.41 253.92 812.29 264.76 795.88 275.17 C 796.78 273.58 797.60 271.95 798.42 270.32 C 797.90 270.14 796.86 269.78 796.33 269.60 C 796.80 267.87 797.23 266.13 797.71 264.41 C 797.05 264.13 795.75 263.58 795.10 263.30 C 796.98 262.36 798.87 261.41 800.77 260.47 C 799.76 259.98 798.77 259.50 797.78 259.02 C 798.48 258.75 799.18 258.47 799.90 258.20 C 798.62 254.75 797.68 251.18 796.88 247.60 C 806.46 241.64 815.70 235.14 825.58 229.69 C 828.75 227.85 831.80 225.81 834.83 223.74 C 833.92 222.10 832.22 220.61 832.36 218.61 Z" />
<path fill="#e7e7e7" d=" M 844.17 216.21 C 845.67 215.84 847.17 215.47 848.70 215.10 C 848.69 223.86 847.84 232.61 848.20 241.38 C 847.08 242.11 845.96 242.84 844.85 243.55 L 843.74 243.23 C 843.47 234.22 844.72 225.22 844.17 216.21 Z" />
<path fill="#222125" d=" M 424.73 224.31 C 429.23 223.51 433.64 222.07 438.25 222.05 C 436.49 225.45 434.79 229.30 431.38 231.35 C 431.50 230.31 431.63 229.27 431.78 228.23 C 430.41 227.33 429.15 226.21 427.60 225.64 C 425.63 225.58 423.68 225.88 421.72 225.92 C 422.53 225.07 423.55 224.47 424.73 224.31 Z" />
<path fill="#ededed" d=" M 820.58 226.63 C 823.02 225.05 824.50 228.00 825.58 229.69 C 815.70 235.14 806.46 241.64 796.88 247.60 C 790.59 251.46 784.46 255.59 778.22 259.56 C 771.14 263.72 764.46 268.52 757.43 272.75 C 753.65 275.18 749.88 277.61 746.03 279.92 C 744.57 278.74 742.86 278.01 741.07 277.51 C 767.53 260.48 794.14 243.67 820.58 226.63 Z" />
<path fill="#9d9d9d" d=" M 861.18 232.51 C 862.50 230.51 864.32 228.92 866.38 227.71 C 865.37 230.94 863.89 234.04 861.70 236.64 C 854.31 245.74 844.39 252.23 835.05 259.12 C 831.31 262.09 826.33 263.80 823.92 268.17 C 828.11 266.18 831.68 263.17 835.50 260.58 C 843.31 255.18 851.19 249.68 857.71 242.71 C 859.72 240.55 861.96 238.64 864.28 236.81 C 861.97 241.73 858.01 245.48 853.75 248.72 C 843.33 257.88 831.60 265.36 820.11 273.09 C 810.56 278.77 801.73 285.55 792.14 291.17 C 776.92 301.33 761.45 311.13 746.13 321.14 C 641.61 388.98 537.12 456.84 432.38 524.32 C 425.00 529.44 416.97 533.52 409.59 538.62 C 402.56 542.89 395.80 547.58 388.59 551.55 C 376.58 559.21 364.36 566.72 351.10 572.06 C 329.48 580.45 304.72 581.81 282.97 573.12 C 275.32 570.74 268.56 566.42 261.70 562.41 C 249.62 554.96 238.26 546.44 226.59 538.39 C 194.48 515.49 162.27 492.75 130.16 469.85 C 115.61 459.57 100.81 449.52 87.50 437.62 C 79.71 431.05 71.21 424.25 67.54 414.39 C 64.45 406.45 66.17 397.85 65.85 389.59 C 65.91 385.94 65.97 382.29 65.89 378.65 C 65.88 375.34 65.98 372.05 66.02 368.75 C 66.15 369.12 66.40 369.86 66.53 370.23 C 67.78 373.41 69.39 376.45 71.25 379.33 C 71.46 379.66 71.89 380.33 72.10 380.66 C 72.11 389.12 71.07 397.60 71.98 406.04 C 72.21 408.01 71.39 409.87 70.85 411.72 C 70.08 413.81 71.17 415.88 72.24 417.66 C 76.83 425.58 84.58 430.80 91.41 436.61 C 95.65 440.16 100.01 443.56 104.92 446.14 C 151.16 479.22 197.64 512.01 243.97 544.98 C 255.60 552.85 266.88 561.42 279.68 567.38 C 304.20 578.50 333.68 576.90 357.40 564.43 C 374.32 555.50 390.16 544.71 406.36 534.57 C 461.28 499.53 515.85 463.97 570.58 428.65 C 654.85 373.89 739.28 319.37 823.44 264.42 C 835.40 255.85 848.36 248.35 858.42 237.45 C 859.76 236.07 860.41 234.23 861.18 232.51 Z" />
<path fill="#808080" d=" M 854.58 237.23 C 856.76 235.63 858.99 234.10 861.18 232.51 C 860.41 234.23 859.76 236.07 858.42 237.45 C 848.36 248.35 835.40 255.85 823.44 264.42 C 739.28 319.37 654.85 373.89 570.58 428.65 C 515.85 463.97 461.28 499.53 406.36 534.57 C 390.16 544.71 374.32 555.50 357.40 564.43 C 333.68 576.90 304.20 578.50 279.68 567.38 C 266.88 561.42 255.60 552.85 243.97 544.98 C 197.64 512.01 151.16 479.22 104.92 446.14 C 100.01 443.56 95.65 440.16 91.41 436.61 C 84.58 430.80 76.83 425.58 72.24 417.66 C 71.17 415.88 70.08 413.81 70.85 411.72 C 73.21 414.86 76.08 417.55 79.23 419.88 C 82.11 422.27 84.98 424.68 88.08 426.79 C 87.51 426.88 86.38 427.07 85.81 427.17 C 88.07 429.27 90.41 431.27 92.90 433.10 C 127.75 459.12 163.57 483.80 198.94 509.10 C 215.47 520.89 232.09 532.53 248.58 544.38 C 259.81 552.02 270.80 560.29 283.42 565.56 C 306.79 575.17 334.18 573.14 356.43 561.45 C 362.29 558.24 368.48 555.66 374.11 552.04 C 420.54 522.57 466.68 492.64 512.89 462.82 C 522.45 456.41 532.46 450.65 541.61 443.63 C 546.59 439.83 552.41 437.32 557.43 433.58 C 560.19 431.57 562.96 429.57 565.92 427.86 C 577.85 421.45 588.73 413.31 600.30 406.28 C 607.49 401.99 613.66 396.19 621.06 392.21 C 627.11 389.01 632.72 385.08 638.53 381.48 C 645.23 377.33 651.07 371.89 658.09 368.23 C 665.09 364.82 670.64 359.20 677.49 355.55 C 681.81 353.32 685.68 350.38 689.64 347.59 C 694.36 344.20 699.89 342.10 704.36 338.34 C 711.56 332.56 720.11 328.89 727.62 323.58 C 733.82 319.95 739.58 315.68 745.35 311.43 C 750.40 307.61 756.48 305.43 761.35 301.34 C 767.53 296.30 774.96 293.12 781.23 288.22 C 787.17 283.65 794.38 281.09 800.02 276.09 C 811.38 268.42 822.89 260.94 834.24 253.23 C 840.16 249.12 846.83 246.06 852.21 241.19 C 853.42 240.17 854.28 238.79 854.58 237.23 Z" />
<path fill="#696969" d=" M 848.20 241.38 C 850.31 239.98 852.46 238.63 854.58 237.23 C 854.28 238.79 853.42 240.17 852.21 241.19 C 846.83 246.06 840.16 249.12 834.24 253.23 C 822.89 260.94 811.38 268.42 800.02 276.09 C 794.38 281.09 787.17 283.65 781.23 288.22 C 774.96 293.12 767.53 296.30 761.35 301.34 C 756.48 305.43 750.40 307.61 745.35 311.43 C 739.58 315.68 733.82 319.95 727.62 323.58 C 720.11 328.89 711.56 332.56 704.36 338.34 C 699.89 342.10 694.36 344.20 689.64 347.59 C 685.68 350.38 681.81 353.32 677.49 355.55 C 670.64 359.20 665.09 364.82 658.09 368.23 C 651.07 371.89 645.23 377.33 638.53 381.48 C 632.72 385.08 627.11 389.01 621.06 392.21 C 613.66 396.19 607.49 401.99 600.30 406.28 C 588.73 413.31 577.85 421.45 565.92 427.86 C 562.96 429.57 560.19 431.57 557.43 433.58 C 552.41 437.32 546.59 439.83 541.61 443.63 C 532.46 450.65 522.45 456.41 512.89 462.82 C 466.68 492.64 420.54 522.57 374.11 552.04 C 368.48 555.66 362.29 558.24 356.43 561.45 C 334.18 573.14 306.79 575.17 283.42 565.56 C 270.80 560.29 259.81 552.02 248.58 544.38 C 232.09 532.53 215.47 520.89 198.94 509.10 C 163.57 483.80 127.75 459.12 92.90 433.10 C 90.41 431.27 88.07 429.27 85.81 427.17 C 86.38 427.07 87.51 426.88 88.08 426.79 C 133.97 459.33 179.77 492.03 225.79 524.40 C 238.01 533.07 250.33 541.61 262.61 550.20 C 270.61 555.96 278.78 561.81 288.21 564.99 C 290.67 565.85 293.15 566.63 295.68 567.27 C 297.73 567.77 299.80 568.18 301.89 568.49 C 304.66 568.93 307.46 569.18 310.27 569.23 C 311.78 569.23 313.29 569.19 314.81 569.16 C 318.97 569.01 323.14 568.95 327.26 568.32 C 328.80 568.03 330.34 567.72 331.87 567.39 C 333.22 567.07 334.57 566.76 335.92 566.43 C 338.46 565.77 340.98 565.05 343.46 564.23 C 346.05 563.33 348.59 562.28 351.10 561.18 C 357.68 558.37 363.79 554.60 369.80 550.74 C 371.25 549.81 372.70 548.88 374.16 547.95 C 380.15 544.12 386.18 540.37 392.13 536.48 C 401.45 530.43 410.88 524.53 420.19 518.46 C 423.83 516.17 427.43 513.80 431.06 511.49 C 435.69 508.50 440.36 505.57 444.96 502.53 C 481.51 478.97 518.00 455.32 554.54 431.74 C 622.67 387.77 690.62 343.52 758.65 299.39 C 765.51 295.03 772.26 290.48 779.12 286.11 C 784.74 282.51 790.32 278.86 795.88 275.17 C 812.29 264.76 828.41 253.92 844.85 243.55 C 845.96 242.84 847.08 242.11 848.20 241.38 Z" />
<path fill="#bbbcbc" d=" M 778.22 259.56 C 784.46 255.59 790.59 251.46 796.88 247.60 C 797.68 251.18 798.62 254.75 799.90 258.20 C 799.18 258.47 798.48 258.75 797.78 259.02 C 798.77 259.50 799.76 259.98 800.77 260.47 C 798.87 261.41 796.98 262.36 795.10 263.30 C 795.75 263.58 797.05 264.13 797.71 264.41 C 797.23 266.13 796.80 267.87 796.33 269.60 C 796.86 269.78 797.90 270.14 798.42 270.32 C 797.60 271.95 796.78 273.58 795.88 275.17 C 790.32 278.86 784.74 282.51 779.12 286.11 C 777.01 284.21 775.00 282.17 773.55 279.72 C 775.03 278.44 776.72 277.09 777.03 275.01 C 777.61 273.03 776.06 271.42 775.24 269.80 C 775.85 269.62 776.47 269.44 777.11 269.26 C 776.58 268.23 776.06 267.20 775.55 266.17 C 776.51 265.21 777.60 264.34 778.41 263.23 C 778.52 262.00 778.30 260.77 778.22 259.56 Z" />
<path fill="#c7c7c7" d=" M 757.43 272.75 C 764.46 268.52 771.14 263.72 778.22 259.56 C 778.30 260.77 778.52 262.00 778.41 263.23 C 777.60 264.34 776.51 265.21 775.55 266.17 C 776.06 267.20 776.58 268.23 777.11 269.26 C 776.47 269.44 775.85 269.62 775.24 269.80 C 776.06 271.42 777.61 273.03 777.03 275.01 C 776.72 277.09 775.03 278.44 773.55 279.72 C 775.00 282.17 777.01 284.21 779.12 286.11 C 772.26 290.48 765.51 295.03 758.65 299.39 C 757.89 297.41 756.08 295.53 756.30 293.34 C 757.80 290.63 762.75 289.61 761.31 285.70 C 759.83 285.75 758.46 286.39 757.10 286.86 C 758.04 285.63 758.97 284.39 759.90 283.14 C 757.68 280.10 756.31 276.51 757.43 272.75 Z" />
<path fill="#d2d0d1" d=" M 746.03 279.92 C 749.88 277.61 753.65 275.18 757.43 272.75 C 756.31 276.51 757.68 280.10 759.90 283.14 C 758.97 284.39 758.04 285.63 757.10 286.86 C 758.46 286.39 759.83 285.75 761.31 285.70 C 762.75 289.61 757.80 290.63 756.30 293.34 C 756.08 295.53 757.89 297.41 758.65 299.39 C 690.62 343.52 622.67 387.77 554.54 431.74 C 553.36 430.25 552.19 428.77 551.03 427.29 C 549.99 427.75 548.96 428.23 547.93 428.71 C 549.68 426.20 550.87 423.37 552.36 420.72 C 555.36 420.08 558.46 420.44 561.50 420.27 C 560.12 419.60 558.73 418.93 557.35 418.27 C 558.18 417.73 559.02 417.20 559.87 416.68 C 558.75 415.99 557.63 415.31 556.52 414.63 C 557.98 411.75 559.26 408.78 560.42 405.77 C 559.30 404.21 558.19 402.64 557.07 401.08 C 620.15 360.83 683.10 320.38 746.03 279.92 Z" />
<path fill="#f6f8f5" d=" M 409.89 489.24 C 520.41 418.86 630.78 348.24 741.07 277.51 C 742.86 278.01 744.57 278.74 746.03 279.92 C 683.10 320.38 620.15 360.83 557.07 401.08 C 518.61 425.60 480.19 450.19 441.81 474.84 C 437.83 477.46 433.78 479.95 429.81 482.57 C 425.22 485.49 420.60 488.37 416.02 491.32 C 414.27 492.45 412.51 493.57 410.76 494.68 C 410.46 492.86 410.17 491.05 409.89 489.24 Z" />
<path fill="#555555" d=" M 66.07 359.63 C 67.85 351.71 73.88 345.66 80.05 340.81 C 76.38 345.46 72.15 350.17 71.23 356.25 C 71.11 356.92 70.88 358.27 70.76 358.95 C 69.27 361.71 67.43 364.28 66.03 367.10 C 66.04 364.60 65.98 362.11 66.07 359.63 Z" />
<path fill="#c0c1c0" d=" M 71.23 356.25 C 72.65 360.53 72.34 365.30 74.68 369.29 C 80.17 380.15 90.70 386.93 100.43 393.60 C 159.56 434.76 218.44 476.27 277.66 517.30 C 292.75 527.82 312.08 533.04 330.29 529.28 C 343.19 527.19 355.08 521.22 366.02 514.29 C 366.38 514.68 367.10 515.47 367.46 515.87 C 365.68 516.77 363.90 517.69 362.20 518.74 C 358.99 520.83 355.75 522.86 352.33 524.58 C 347.37 527.02 342.09 528.75 336.76 530.16 C 335.76 530.36 334.76 530.55 333.77 530.72 C 331.11 531.12 328.49 531.74 325.94 532.62 C 325.12 534.46 324.28 536.30 323.41 538.12 C 320.83 538.05 318.26 537.99 315.69 537.94 L 315.86 537.29 C 316.22 535.94 316.58 534.60 316.94 533.26 C 312.02 531.86 306.81 532.12 301.92 530.61 C 297.72 529.42 293.50 528.24 289.53 526.40 C 286.89 525.19 284.29 523.92 281.78 522.47 C 278.25 520.30 274.85 517.94 271.47 515.55 C 268.20 513.18 264.81 510.99 261.56 508.59 C 258.47 506.33 255.37 504.10 252.24 501.92 C 251.25 501.23 250.28 500.54 249.30 499.87 C 249.06 501.98 248.83 504.10 248.60 506.22 C 247.33 505.49 246.07 504.74 244.84 503.96 C 244.73 501.78 244.63 499.61 244.55 497.43 C 240.95 494.47 237.28 491.59 233.36 489.05 C 192.29 460.32 151.23 431.55 110.10 402.89 C 102.05 397.54 94.68 391.18 86.29 386.32 C 85.08 387.67 83.87 389.02 82.66 390.36 C 81.49 389.37 79.76 388.70 79.36 387.08 C 80.18 385.59 81.26 384.26 82.26 382.89 C 81.63 382.07 80.99 381.26 80.35 380.46 C 79.66 379.63 78.97 378.81 78.29 377.99 C 77.29 376.77 76.31 375.55 75.42 374.27 C 73.90 371.82 72.67 369.20 71.71 366.49 C 71.14 364.01 70.90 361.48 70.76 358.95 C 70.88 358.27 71.11 356.92 71.23 356.25 Z" />
<path fill="#747474" d=" M 66.03 367.10 C 67.43 364.28 69.27 361.71 70.76 358.95 C 70.90 361.48 71.14 364.01 71.71 366.49 C 69.98 367.73 68.26 368.98 66.53 370.23 C 66.40 369.86 66.15 369.12 66.02 368.75 C 66.02 368.34 66.02 367.51 66.03 367.10 Z" />
<path fill="#5a5a5a" d=" M 66.53 370.23 C 68.26 368.98 69.98 367.73 71.71 366.49 C 72.67 369.20 73.90 371.82 75.42 374.27 C 74.04 375.96 72.65 377.65 71.25 379.33 C 69.39 376.45 67.78 373.41 66.53 370.23 Z" />
<path fill="#767676" d=" M 75.42 374.27 C 76.31 375.55 77.29 376.77 78.29 377.99 C 76.83 379.52 75.38 381.05 73.92 382.58 C 73.47 382.10 72.56 381.14 72.10 380.66 C 71.89 380.33 71.46 379.66 71.25 379.33 C 72.65 377.65 74.04 375.96 75.42 374.27 Z" />
<path fill="#909191" d=" M 78.29 377.99 C 78.97 378.81 79.66 379.63 80.35 380.46 C 79.11 382.04 77.81 383.57 76.47 385.06 C 75.62 384.23 74.76 383.42 73.92 382.58 C 75.38 381.05 76.83 379.52 78.29 377.99 Z" />
<path fill="#a8a8a8" d=" M 80.35 380.46 C 80.99 381.26 81.63 382.07 82.26 382.89 C 81.26 384.26 80.18 385.59 79.36 387.08 C 79.76 388.70 81.49 389.37 82.66 390.36 C 84.61 391.71 86.46 393.20 88.32 394.68 C 85.09 393.96 81.00 392.53 78.36 395.34 C 75.30 398.05 75.76 402.51 75.76 406.21 C 75.29 404.80 74.76 403.42 74.23 402.04 C 74.19 408.32 75.95 414.53 79.23 419.88 C 76.08 417.55 73.21 414.86 70.85 411.72 C 71.39 409.87 72.21 408.01 71.98 406.04 C 71.07 397.60 72.11 389.12 72.10 380.66 C 72.56 381.14 73.47 382.10 73.92 382.58 C 74.76 383.42 75.62 384.23 76.47 385.06 C 77.81 383.57 79.11 382.04 80.35 380.46 Z" />
<path fill="#edefee" d=" M 86.29 386.32 C 94.68 391.18 102.05 397.54 110.10 402.89 C 110.03 404.96 109.95 407.02 109.88 409.09 C 103.69 404.87 97.90 400.02 91.12 396.74 C 90.18 396.05 89.25 395.37 88.32 394.68 C 86.46 393.20 84.61 391.71 82.66 390.36 C 83.87 389.02 85.08 387.67 86.29 386.32 Z" />
<path fill="#050505" d=" M 594.29 389.09 C 595.27 389.45 596.28 389.84 597.25 390.27 C 596.74 390.34 595.72 390.47 595.21 390.53 C 594.98 391.29 594.53 392.79 594.30 393.55 C 594.81 393.72 595.84 394.06 596.35 394.23 C 595.87 394.22 594.92 394.22 594.44 394.22 C 594.20 395.18 593.96 396.15 593.72 397.12 L 593.98 394.16 C 592.21 395.11 590.91 396.45 590.06 398.16 C 588.72 394.47 591.46 391.12 594.29 389.09 Z" />
<path fill="#6e706f" d=" M 78.36 395.34 C 81.00 392.53 85.09 393.96 88.32 394.68 C 89.25 395.37 90.18 396.05 91.12 396.74 C 96.72 402.72 101.48 410.61 100.61 419.11 C 100.37 422.30 98.48 425.84 95.04 426.36 C 91.16 426.76 87.55 424.63 84.67 422.24 C 80.07 418.02 77.43 412.13 75.76 406.21 C 75.76 402.51 75.30 398.05 78.36 395.34 Z" />
<path fill="#030304" d=" M 85.24 396.03 C 92.05 399.41 96.06 406.67 97.54 413.88 C 98.45 416.82 95.88 419.98 92.74 419.10 C 88.00 416.45 85.23 411.40 83.38 406.48 C 82.60 403.68 82.43 400.77 82.39 397.89 C 83.34 397.27 84.29 396.65 85.24 396.03 Z" />
<path fill="#c2c4c3" d=" M 91.12 396.74 C 97.90 400.02 103.69 404.87 109.88 409.09 C 150.61 438.10 191.49 466.90 232.40 495.65 C 232.83 495.97 233.26 496.29 233.70 496.63 C 231.62 498.49 229.50 500.31 227.32 502.06 C 227.37 501.09 227.42 500.12 227.48 499.16 C 226.41 498.95 225.34 498.75 224.28 498.56 C 222.95 498.59 221.14 497.54 220.23 499.01 C 220.09 501.59 221.03 504.28 223.67 505.26 C 222.56 505.80 221.43 506.30 220.31 506.83 C 220.25 508.25 220.19 509.68 220.12 511.12 C 221.69 512.89 223.75 514.25 226.13 513.06 C 226.34 513.42 226.75 514.16 226.96 514.53 C 227.93 516.44 229.40 518.02 231.07 519.36 C 230.78 519.61 230.19 520.11 229.89 520.35 C 228.19 520.26 226.48 520.19 224.78 520.15 C 225.97 521.54 227.36 522.72 228.88 523.72 C 228.11 523.89 226.56 524.23 225.79 524.40 C 179.77 492.03 133.97 459.33 88.08 426.79 C 84.98 424.68 82.11 422.27 79.23 419.88 C 75.95 414.53 74.19 408.32 74.23 402.04 C 74.76 403.42 75.29 404.80 75.76 406.21 C 77.43 412.13 80.07 418.02 84.67 422.24 C 87.55 424.63 91.16 426.76 95.04 426.36 C 98.48 425.84 100.37 422.30 100.61 419.11 C 101.48 410.61 96.72 402.72 91.12 396.74 Z" />
<path fill="#ced0cf" d=" M 78.73 399.07 C 78.82 398.94 78.99 398.68 79.08 398.54 L 78.73 399.07 Z" />
<path fill="#1c1d1c" d=" M 79.08 398.54 C 80.70 397.76 81.08 401.18 79.30 400.60 C 79.16 400.22 78.87 399.45 78.73 399.07 L 79.08 398.54 Z" />
<path fill="#989898" d=" M 209.12 401.30 C 211.53 400.60 213.94 399.89 216.37 399.25 C 216.45 400.28 216.53 401.32 216.63 402.36 C 214.49 402.76 212.36 403.15 210.27 403.73 C 209.88 402.92 209.50 402.11 209.12 401.30 Z" />
<path fill="#4d4d4d" d=" M 216.37 399.25 C 227.05 397.97 238.41 398.65 248.01 403.94 C 252.48 406.14 256.05 409.84 258.47 414.17 C 257.54 414.86 256.62 415.55 255.70 416.25 C 253.32 410.22 247.48 406.49 241.67 404.25 C 233.69 401.42 224.95 400.99 216.63 402.36 C 216.53 401.32 216.45 400.28 216.37 399.25 Z" />
<path fill="#ced0cf" d=" M 80.21 414.10 C 78.23 409.59 76.45 404.65 77.44 399.66 C 78.10 401.89 78.47 404.18 78.77 406.49 C 80.31 406.54 81.84 406.52 83.38 406.48 C 85.23 411.40 88.00 416.45 92.74 419.10 C 92.22 420.45 91.70 421.79 91.17 423.15 C 92.62 422.81 95.50 422.12 96.94 421.78 C 97.46 425.53 93.24 425.15 91.10 424.44 C 86.42 423.00 83.82 418.72 80.72 415.33 C 81.37 415.52 82.68 415.89 83.33 416.08 C 82.97 415.31 82.25 413.75 81.89 412.98 C 81.47 413.26 80.63 413.82 80.21 414.10 Z" />
<path fill="#e5e5e5" d=" M 195.41 408.23 C 199.40 404.98 204.02 402.27 209.12 401.30 C 209.50 402.11 209.88 402.92 210.27 403.73 C 204.53 406.00 198.94 409.06 195.03 413.96 C 194.51 412.86 193.98 411.76 193.50 410.66 C 193.27 409.64 194.86 408.98 195.41 408.23 Z" />
<path fill="#d7d8d7" d=" M 441.81 474.84 C 480.19 450.19 518.61 425.60 557.07 401.08 C 558.19 402.64 559.30 404.21 560.42 405.77 C 559.26 408.78 557.98 411.75 556.52 414.63 C 557.63 415.31 558.75 415.99 559.87 416.68 C 559.02 417.20 558.18 417.73 557.35 418.27 C 558.73 418.93 560.12 419.60 561.50 420.27 C 558.46 420.44 555.36 420.08 552.36 420.72 C 550.87 423.37 549.68 426.20 547.93 428.71 C 548.96 428.23 549.99 427.75 551.03 427.29 C 552.19 428.77 553.36 430.25 554.54 431.74 C 518.00 455.32 481.51 478.97 444.96 502.53 C 444.75 501.46 444.56 500.40 444.37 499.34 C 443.86 499.10 442.85 498.64 442.34 498.41 C 442.67 497.38 442.99 496.35 443.33 495.32 C 442.08 491.39 442.06 487.21 443.31 483.29 C 442.90 482.73 442.50 482.18 442.10 481.63 C 442.51 481.59 443.32 481.52 443.72 481.48 C 442.93 479.31 442.30 477.09 441.81 474.84 Z" />
<path fill="#f6f6f8" d=" M 216.63 402.36 C 224.95 400.99 233.69 401.42 241.67 404.25 C 247.48 406.49 253.32 410.22 255.70 416.25 C 255.83 416.90 256.08 418.21 256.21 418.86 C 256.33 422.27 255.67 425.70 253.98 428.69 C 250.42 432.82 246.11 436.48 240.91 438.34 C 233.15 440.96 224.91 441.98 216.73 441.41 C 214.79 441.01 212.85 440.65 210.92 440.22 C 205.87 439.00 201.03 436.68 197.12 433.23 C 195.52 431.22 194.06 429.08 192.94 426.76 C 191.67 422.41 192.32 417.63 195.03 413.96 C 198.94 409.06 204.53 406.00 210.27 403.73 C 212.36 403.15 214.49 402.76 216.63 402.36 Z" />
<path fill="#f6f8f7" d=" M 110.10 402.89 C 151.23 431.55 192.29 460.32 233.36 489.05 C 233.08 491.25 232.77 493.46 232.40 495.65 C 191.49 466.90 150.61 438.10 109.88 409.09 C 109.95 407.02 110.03 404.96 110.10 402.89 Z" />
<path fill="#c3c3c3" d=" M 193.50 410.66 C 193.98 411.76 194.51 412.86 195.03 413.96 C 192.32 417.63 191.67 422.41 192.94 426.76 C 192.44 426.56 191.43 426.16 190.93 425.97 C 190.55 426.15 189.80 426.53 189.42 426.72 L 188.99 426.93 C 187.84 421.08 189.40 415.02 193.50 410.66 Z" />
<path fill="#858585" d=" M 258.47 414.17 L 258.70 413.99 C 259.96 417.76 260.21 421.82 259.05 425.66 C 257.75 423.56 256.66 421.30 256.21 418.86 C 256.08 418.21 255.83 416.90 255.70 416.25 C 256.62 415.55 257.54 414.86 258.47 414.17 Z" />
<path fill="#010102" d=" M 103.91 419.93 C 103.35 418.35 102.50 415.83 104.81 415.34 C 108.36 415.58 109.65 419.48 109.26 422.51 C 107.11 422.93 104.71 422.11 103.91 419.93 Z" />
<path fill="#a9a9a9" d=" M 256.21 418.86 C 256.66 421.30 257.75 423.56 259.05 425.66 C 258.35 427.11 257.64 428.56 256.95 430.03 C 255.96 429.58 254.97 429.13 253.98 428.69 C 255.67 425.70 256.33 422.27 256.21 418.86 Z" />
<path fill="#030303" d=" M 111.31 420.17 C 113.52 420.38 115.82 421.48 116.31 423.87 C 117.09 425.55 116.49 428.81 114.00 427.59 C 110.76 426.56 111.07 422.88 111.31 420.17 Z" />
<path fill="#010101" d=" M 103.03 423.75 C 105.06 422.88 106.81 424.07 108.26 425.43 C 105.78 427.44 110.53 429.32 107.94 430.72 C 104.18 431.21 102.91 426.70 103.03 423.75 Z" />
<path fill="#000000" d=" M 118.02 425.65 C 122.23 424.83 124.33 429.66 123.10 433.08 C 121.84 432.66 120.21 432.80 119.31 431.64 C 117.81 430.04 118.40 427.61 118.02 425.65 Z" />
<path fill="#a6a6a6" d=" M 189.42 426.72 C 189.80 426.53 190.55 426.15 190.93 425.97 C 191.43 426.16 192.44 426.56 192.94 426.76 C 194.06 429.08 195.52 431.22 197.12 433.23 C 196.41 433.88 195.70 434.54 195.00 435.20 C 192.33 433.02 190.28 430.07 189.42 426.72 Z" />
<path fill="#020202" d=" M 115.96 435.92 C 111.93 436.66 108.73 431.04 111.67 428.11 C 115.21 428.99 116.68 432.57 115.96 435.92 Z" />
<path fill="#c7c7c7" d=" M 240.91 438.34 C 246.11 436.48 250.42 432.82 253.98 428.69 C 254.97 429.13 255.96 429.58 256.95 430.03 C 253.86 434.77 248.83 437.46 244.08 440.22 C 243.02 439.58 241.96 438.96 240.91 438.34 Z" />
<path fill="#040404" d=" M 125.35 430.29 C 129.49 430.11 131.72 434.69 130.28 438.25 C 128.97 437.75 127.26 437.88 126.32 436.68 C 124.55 434.99 125.39 432.42 125.35 430.29 Z" />
<path fill="#464846" d=" M 195.00 435.20 C 195.70 434.54 196.41 433.88 197.12 433.23 C 201.03 436.68 205.87 439.00 210.92 440.22 C 209.94 440.94 208.95 441.64 207.95 442.32 C 203.15 440.91 198.92 438.23 195.00 435.20 Z" />
<path fill="#020203" d=" M 117.23 435.07 C 118.06 432.79 120.85 433.79 121.81 435.33 C 123.15 436.80 122.78 438.90 122.97 440.72 C 122.21 440.76 120.68 440.84 119.91 440.87 C 118.52 439.21 117.20 437.33 117.23 435.07 Z" />
<path fill="#020202" d=" M 131.81 436.87 C 135.63 433.27 140.70 441.25 136.62 443.39 C 133.22 443.18 132.47 439.55 131.81 436.87 Z" />
<path fill="#e5e5e5" d=" M 216.73 441.41 C 224.91 441.98 233.15 440.96 240.91 438.34 C 241.96 438.96 243.02 439.58 244.08 440.22 C 237.59 443.59 230.17 444.17 223.01 444.79 C 221.20 444.83 219.03 445.26 217.75 443.61 C 218.34 443.54 219.51 443.40 220.10 443.34 C 218.99 442.67 217.87 442.01 216.73 441.41 Z" />
<path fill="#030303" d=" M 124.90 439.09 C 128.82 437.60 130.94 442.88 130.17 446.04 C 126.37 446.91 122.89 442.24 124.90 439.09 Z" />
<path fill="#a7a7a7" d=" M 210.92 440.22 C 212.85 440.65 214.79 441.01 216.73 441.41 C 217.87 442.01 218.99 442.67 220.10 443.34 C 219.51 443.40 218.34 443.54 217.75 443.61 C 214.43 443.95 211.04 443.63 207.95 442.32 C 208.95 441.64 209.94 440.94 210.92 440.22 Z" />
<path fill="#040405" d=" M 132.18 444.15 C 135.90 442.98 138.80 447.96 137.29 451.08 C 133.80 452.86 130.04 447.12 132.18 444.15 Z" />
<path fill="#323232" d=" M 141.13 446.91 C 142.32 446.30 143.49 445.67 144.64 444.99 C 143.78 445.93 143.21 447.02 142.94 448.27 C 143.35 448.36 144.16 448.54 144.57 448.63 C 145.78 450.47 147.80 451.17 149.85 451.63 C 150.12 454.61 147.80 456.05 145.05 455.89 C 146.28 455.31 147.51 454.72 148.74 454.13 C 146.59 453.95 143.41 449.49 142.09 452.99 C 142.31 452.30 142.74 450.93 142.95 450.25 C 142.51 450.25 141.62 450.26 141.17 450.26 C 141.16 449.42 141.14 447.75 141.13 446.91 Z" />
<path fill="#929493" d=" M 147.07 447.40 C 148.28 446.75 149.42 448.82 148.66 449.76 C 147.42 450.46 146.25 448.33 147.07 447.40 Z" />
<path fill="#030202" d=" M 153.48 459.08 C 153.41 456.70 153.52 452.01 156.93 452.37 C 159.62 451.96 161.72 453.86 163.76 455.28 C 167.38 457.94 171.26 460.27 174.64 463.26 C 175.95 464.08 177.18 465.04 178.60 465.71 L 178.21 467.24 L 179.79 466.38 C 180.53 468.70 185.22 468.15 182.76 471.33 C 183.46 471.03 184.86 470.43 185.56 470.12 L 184.88 473.74 L 186.89 471.52 C 187.31 471.83 188.14 472.45 188.56 472.77 L 188.15 473.69 C 190.93 473.26 192.26 476.40 193.83 478.15 C 196.04 481.58 197.07 486.24 195.03 490.00 C 192.08 492.72 188.13 490.53 185.46 488.56 C 179.12 483.81 172.46 479.48 166.23 474.58 L 165.49 474.35 C 160.19 470.57 153.90 466.24 153.48 459.08 Z" />
<path fill="#eaf0f0" d=" M 155.57 453.44 C 157.50 453.58 159.78 452.95 161.33 454.46 C 166.32 458.27 171.90 461.26 176.43 465.67 C 170.27 463.31 165.71 458.23 159.91 455.22 C 158.76 455.19 157.61 455.27 156.48 455.45 C 156.56 458.32 157.36 461.09 158.64 463.66 C 159.16 463.52 160.20 463.24 160.72 463.10 C 160.65 463.89 160.49 465.47 160.42 466.26 C 162.09 467.17 163.92 467.70 165.73 468.27 C 166.77 468.86 167.79 469.51 168.80 470.17 C 176.19 474.84 183.39 479.81 190.51 484.88 C 190.48 485.54 190.42 486.85 190.39 487.51 C 191.39 487.52 192.39 487.49 193.39 487.44 C 194.67 483.67 192.85 479.35 191.31 476.07 C 195.02 479.12 196.45 484.85 194.30 489.17 C 193.71 489.46 192.53 490.05 191.94 490.34 C 188.02 489.28 184.94 486.55 181.69 484.29 C 174.46 479.19 167.30 474.02 160.14 468.82 C 157.44 467.00 155.95 464.07 154.60 461.21 C 154.40 458.57 154.42 455.88 155.57 453.44 Z" />
<path fill="#cacccb" d=" M 429.81 482.57 C 433.78 479.95 437.83 477.46 441.81 474.84 C 442.30 477.09 442.93 479.31 443.72 481.48 C 443.32 481.52 442.51 481.59 442.10 481.63 C 442.50 482.18 442.90 482.73 443.31 483.29 C 442.06 487.21 442.08 491.39 443.33 495.32 C 442.99 496.35 442.67 497.38 442.34 498.41 C 442.85 498.64 443.86 499.10 444.37 499.34 C 444.56 500.40 444.75 501.46 444.96 502.53 C 440.36 505.57 435.69 508.50 431.06 511.49 C 430.39 510.74 429.73 509.99 429.07 509.25 C 430.26 507.25 431.89 505.29 431.91 502.84 C 432.22 500.96 430.67 499.64 429.75 498.21 C 430.29 497.25 430.86 496.31 431.43 495.38 C 431.12 494.99 430.50 494.23 430.19 493.85 C 430.98 491.98 431.68 490.08 432.32 488.15 C 431.26 489.19 430.22 490.25 429.18 491.30 C 430.04 488.65 430.98 486.02 431.81 483.36 C 431.31 483.16 430.31 482.77 429.81 482.57 Z" />
<path fill="#c3c5c4" d=" M 416.02 491.32 C 420.60 488.37 425.22 485.49 429.81 482.57 C 430.31 482.77 431.31 483.16 431.81 483.36 C 430.98 486.02 430.04 488.65 429.18 491.30 C 430.22 490.25 431.26 489.19 432.32 488.15 C 431.68 490.08 430.98 491.98 430.19 493.85 C 430.50 494.23 431.12 494.99 431.43 495.38 C 430.86 496.31 430.29 497.25 429.75 498.21 C 430.67 499.64 432.22 500.96 431.91 502.84 C 431.89 505.29 430.26 507.25 429.07 509.25 C 429.73 509.99 430.39 510.74 431.06 511.49 C 427.43 513.80 423.83 516.17 420.19 518.46 C 419.76 518.27 418.91 517.88 418.48 517.69 C 418.41 514.51 418.01 511.38 417.45 508.26 C 416.93 505.62 418.45 503.23 419.42 500.89 C 418.77 497.55 418.79 493.76 416.02 491.32 Z" />
<path fill="#0e0e0e" d=" M 201.13 488.86 C 202.22 489.93 203.40 490.91 204.77 491.62 C 205.73 492.86 206.28 494.84 208.32 494.34 C 207.98 492.89 207.71 491.43 207.60 489.95 C 208.37 492.26 208.85 494.69 208.85 497.14 C 208.10 497.96 207.10 498.47 206.19 499.09 C 206.69 498.61 207.68 497.66 208.18 497.19 C 207.57 494.44 203.53 495.89 203.36 493.10 C 202.83 493.17 201.78 493.31 201.26 493.38 C 201.22 491.87 201.18 490.36 201.13 488.86 Z" />
<path fill="#dddedd" d=" M 233.36 489.05 C 237.28 491.59 240.95 494.47 244.55 497.43 C 244.63 499.61 244.73 501.78 244.84 503.96 C 241.18 501.43 237.26 499.29 233.70 496.63 C 233.26 496.29 232.83 495.97 232.40 495.65 C 232.77 493.46 233.08 491.25 233.36 489.05 Z" />
<path fill="#e8eae7" d=" M 402.06 494.30 C 404.69 492.66 407.27 490.92 409.89 489.24 C 410.17 491.05 410.46 492.86 410.76 494.68 C 407.87 496.49 405.00 498.33 402.08 500.10 C 402.07 498.16 402.07 496.23 402.06 494.30 Z" />
<path fill="#b9bbba" d=" M 410.76 494.68 C 412.51 493.57 414.27 492.45 416.02 491.32 C 418.79 493.76 418.77 497.55 419.42 500.89 C 418.45 503.23 416.93 505.62 417.45 508.26 C 418.01 511.38 418.41 514.51 418.48 517.69 C 418.91 517.88 419.76 518.27 420.19 518.46 C 410.88 524.53 401.45 530.43 392.13 536.48 C 391.63 536.01 390.65 535.07 390.16 534.60 C 390.79 532.36 391.45 530.13 392.06 527.90 C 391.03 524.12 392.39 520.34 392.89 516.60 C 391.90 516.56 390.90 516.52 389.92 516.49 C 390.82 513.55 392.77 511.04 396.07 510.98 C 395.10 510.30 394.13 509.63 393.17 508.96 C 393.28 507.77 393.39 506.60 393.50 505.42 C 393.91 505.15 394.73 504.61 395.14 504.35 C 397.38 502.82 399.74 501.47 402.08 500.10 C 405.00 498.33 407.87 496.49 410.76 494.68 Z" />
<path fill="#050505" d=" M 215.28 499.62 C 212.85 498.09 211.74 494.52 213.79 492.20 C 216.83 492.85 219.37 495.72 218.58 498.95 C 218.29 500.56 216.38 499.74 215.28 499.62 Z" />
<path fill="#d7d9d6" d=" M 395.59 498.78 C 397.50 496.96 399.85 495.71 402.06 494.30 C 402.07 496.23 402.07 498.16 402.08 500.10 C 399.74 501.47 397.38 502.82 395.14 504.35 C 395.24 502.49 395.05 500.57 395.59 498.78 Z" />
<path fill="#babcbb" d=" M 227.32 502.06 C 229.50 500.31 231.62 498.49 233.70 496.63 C 237.26 499.29 241.18 501.43 244.84 503.96 C 246.07 504.74 247.33 505.49 248.60 506.22 C 248.83 504.10 249.06 501.98 249.30 499.87 C 250.28 500.54 251.25 501.23 252.24 501.92 C 252.27 504.47 252.12 507.05 252.57 509.59 C 254.62 512.55 258.09 514.01 260.97 516.04 C 261.69 516.51 262.41 517.00 263.13 517.51 C 263.12 518.85 263.18 520.20 263.32 521.54 C 264.46 522.57 265.78 523.40 267.05 524.28 C 265.51 524.85 263.96 525.43 262.41 525.99 C 260.84 524.80 258.96 524.26 257.00 524.57 C 257.01 528.25 258.95 532.62 263.39 531.73 C 263.70 531.75 264.33 531.79 264.64 531.81 C 265.20 533.77 266.32 535.50 267.82 536.89 L 266.71 537.17 C 266.10 537.35 264.87 537.69 264.26 537.87 C 264.41 539.89 264.67 541.92 265.31 543.88 C 264.77 543.91 263.70 543.98 263.17 544.01 C 264.70 545.50 266.26 546.97 267.83 548.43 C 266.09 549.01 264.35 549.60 262.61 550.20 C 250.33 541.61 238.01 533.07 225.79 524.40 C 226.56 524.23 228.11 523.89 228.88 523.72 C 227.36 522.72 225.97 521.54 224.78 520.15 C 226.48 520.19 228.19 520.26 229.89 520.35 C 230.19 520.11 230.78 519.61 231.07 519.36 C 231.50 518.98 232.36 518.23 232.79 517.85 C 233.37 514.68 230.93 510.43 227.32 511.84 C 227.23 512.51 227.05 513.86 226.96 514.53 C 226.75 514.16 226.34 513.42 226.13 513.06 C 225.23 510.58 224.42 508.08 223.45 505.64 C 227.66 505.35 225.53 500.81 224.28 498.56 C 225.34 498.75 226.41 498.95 227.48 499.16 C 227.42 500.12 227.37 501.09 227.32 502.06 Z" />
<path fill="#030303" d=" M 220.23 499.01 C 221.14 497.54 222.95 498.59 224.28 498.56 C 225.53 500.81 227.66 505.35 223.45 505.64 C 224.42 508.08 225.23 510.58 226.13 513.06 C 223.75 514.25 221.69 512.89 220.12 511.12 C 220.19 509.68 220.25 508.25 220.31 506.83 C 221.43 506.30 222.56 505.80 223.67 505.26 C 221.03 504.28 220.09 501.59 220.23 499.01 Z" />
<path fill="#050505" d=" M 213.06 501.24 C 215.80 500.05 218.30 503.39 218.23 505.93 C 218.74 507.19 217.12 509.30 215.81 508.39 C 213.19 507.54 211.15 503.37 213.06 501.24 Z" />
<path fill="#a4a4a4" d=" M 252.24 501.92 C 255.37 504.10 258.47 506.33 261.56 508.59 C 261.36 511.07 261.16 513.55 260.97 516.04 C 258.09 514.01 254.62 512.55 252.57 509.59 C 252.12 507.05 252.27 504.47 252.24 501.92 Z" />
<path fill="#040404" d=" M 228.41 503.18 C 230.05 503.48 231.94 503.74 232.80 505.41 C 233.77 506.97 234.55 510.29 232.00 510.78 C 230.33 510.41 229.26 509.01 228.17 507.82 C 228.26 506.27 228.32 504.72 228.41 503.18 Z" />
<path fill="#b1b3b2" d=" M 380.65 506.95 C 382.96 505.35 385.41 503.99 387.92 502.75 C 388.08 504.44 388.24 506.15 388.40 507.87 C 390.12 507.11 391.86 506.35 393.50 505.42 C 393.39 506.60 393.28 507.77 393.17 508.96 C 394.13 509.63 395.10 510.30 396.07 510.98 C 392.77 511.04 390.82 513.55 389.92 516.49 C 390.90 516.52 391.90 516.56 392.89 516.60 C 392.39 520.34 391.03 524.12 392.06 527.90 C 391.45 530.13 390.79 532.36 390.16 534.60 C 390.65 535.07 391.63 536.01 392.13 536.48 C 386.18 540.37 380.15 544.12 374.16 547.95 C 374.17 537.98 375.28 528.05 375.27 518.09 L 375.23 517.59 C 377.51 516.60 379.72 515.42 381.83 514.09 C 381.39 511.72 381.01 509.33 380.65 506.95 Z" />
<path fill="#9d9f9d" d=" M 371.71 512.00 C 374.94 510.81 377.84 508.90 380.65 506.95 C 381.01 509.33 381.39 511.72 381.83 514.09 C 379.72 515.42 377.51 516.60 375.23 517.59 C 374.17 515.66 372.98 513.80 371.71 512.00 Z" />
<path fill="#030303" d=" M 235.35 509.79 C 235.74 507.60 238.27 508.46 239.30 509.60 C 241.40 511.38 241.99 516.21 238.17 516.16 L 238.58 514.51 C 238.22 514.66 237.51 514.96 237.15 515.12 C 236.22 513.47 235.11 511.77 235.35 509.79 Z" />
<path fill="#848484" d=" M 260.97 516.04 C 261.16 513.55 261.36 511.07 261.56 508.59 C 264.81 510.99 268.20 513.18 271.47 515.55 C 271.15 517.95 270.91 520.37 270.74 522.80 C 268.17 521.08 265.67 519.27 263.13 517.51 C 262.41 517.00 261.69 516.51 260.97 516.04 Z" />
<path fill="#060607" d=" M 227.32 511.84 C 230.93 510.43 233.37 514.68 232.79 517.85 C 232.36 518.23 231.50 518.98 231.07 519.36 C 229.40 518.02 227.93 516.44 226.96 514.53 C 227.05 513.86 227.23 512.51 227.32 511.84 Z" />
<path fill="#f5f5f5" d=" M 366.02 514.29 C 367.31 513.47 368.59 512.65 369.90 511.88 C 370.35 511.91 371.26 511.97 371.71 512.00 C 372.98 513.80 374.17 515.66 375.23 517.59 L 375.27 518.09 C 373.57 518.81 371.88 519.54 370.19 520.27 C 369.38 518.74 368.47 517.26 367.46 515.87 C 367.10 515.47 366.38 514.68 366.02 514.29 Z" />
<path fill="#030303" d=" M 243.17 518.86 C 242.62 516.89 242.34 514.83 243.81 513.16 C 247.41 514.16 249.75 518.75 247.04 521.82 C 245.67 520.93 244.37 519.95 243.17 518.86 Z" />
<path fill="#6c6c6c" d=" M 270.74 522.80 C 270.91 520.37 271.15 517.95 271.47 515.55 C 274.85 517.94 278.25 520.30 281.78 522.47 C 281.47 524.65 281.17 526.83 280.87 529.02 C 277.35 527.18 274.06 524.97 270.74 522.80 Z" />
<path fill="#797c79" d=" M 362.20 518.74 C 363.90 517.69 365.68 516.77 367.46 515.87 C 368.47 517.26 369.38 518.74 370.19 520.27 L 370.29 521.01 C 368.11 522.36 365.92 523.73 363.75 525.10 C 363.22 522.98 362.71 520.86 362.20 518.74 Z" />
<path fill="#060606" d=" M 240.33 524.10 C 236.32 525.07 232.13 519.04 235.93 516.53 C 239.62 516.79 241.13 520.91 240.33 524.10 Z" />
<path fill="#b4b6b5" d=" M 263.13 517.51 C 265.67 519.27 268.17 521.08 270.74 522.80 C 274.06 524.97 277.35 527.18 280.87 529.02 C 283.17 530.18 285.53 531.22 287.93 532.16 C 288.13 532.23 288.54 532.38 288.74 532.46 C 287.95 543.28 288.64 554.15 288.21 564.99 C 278.78 561.81 270.61 555.96 262.61 550.20 C 264.35 549.60 266.09 549.01 267.83 548.43 C 266.26 546.97 264.70 545.50 263.17 544.01 C 263.70 543.98 264.77 543.91 265.31 543.88 C 266.68 544.42 267.95 545.61 269.48 545.60 C 271.23 545.27 270.96 543.44 270.86 542.10 C 270.65 539.75 268.47 538.35 266.71 537.17 L 267.82 536.89 C 268.97 536.82 270.12 536.77 271.28 536.73 C 271.16 534.75 271.50 532.49 270.09 530.89 C 268.98 529.23 266.82 529.23 265.08 528.82 C 264.97 529.57 264.75 531.06 264.64 531.81 C 264.33 531.79 263.70 531.75 263.39 531.73 C 263.09 529.80 262.83 527.88 262.41 525.99 C 263.96 525.43 265.51 524.85 267.05 524.28 C 265.78 523.40 264.46 522.57 263.32 521.54 C 263.18 520.20 263.12 518.85 263.13 517.51 Z" />
<path fill="#dfdfdf" d=" M 370.19 520.27 C 371.88 519.54 373.57 518.81 375.27 518.09 C 375.28 528.05 374.17 537.98 374.16 547.95 C 372.70 548.88 371.25 549.81 369.80 550.74 C 368.99 540.83 370.56 530.92 370.29 521.01 L 370.19 520.27 Z" />
<path fill="#030303" d=" M 249.96 519.04 C 254.24 517.67 256.64 522.53 255.95 526.10 C 254.72 526.32 253.32 526.71 252.28 525.74 C 250.03 524.27 250.34 521.36 249.96 519.04 Z" />
<path fill="#666866" d=" M 352.33 524.58 C 355.75 522.86 358.99 520.83 362.20 518.74 C 362.71 520.86 363.22 522.98 363.75 525.10 C 360.74 526.99 357.71 528.85 354.48 530.35 C 353.96 528.35 353.84 526.13 352.33 524.58 Z" />
<path fill="#b0b2b1" d=" M 363.75 525.10 C 365.92 523.73 368.11 522.36 370.29 521.01 C 370.56 530.92 368.99 540.83 369.80 550.74 C 363.79 554.60 357.68 558.37 351.10 561.18 C 350.15 551.52 350.73 541.81 350.37 532.14 C 351.75 531.56 353.12 530.96 354.48 530.35 C 357.71 528.85 360.74 526.99 363.75 525.10 Z" />
<path fill="#030303" d=" M 242.95 521.96 C 246.83 521.51 248.23 525.94 247.87 529.04 C 243.97 530.91 240.68 524.88 242.95 521.96 Z" />
<path fill="#5b5b5b" d=" M 280.87 529.02 C 281.17 526.83 281.47 524.65 281.78 522.47 C 284.29 523.92 286.89 525.19 289.53 526.40 C 288.66 528.21 288.23 530.17 287.93 532.16 C 285.53 531.22 283.17 530.18 280.87 529.02 Z" />
<path fill="#030303" d=" M 257.00 524.57 C 258.96 524.26 260.84 524.80 262.41 525.99 C 262.83 527.88 263.09 529.80 263.39 531.73 C 258.95 532.62 257.01 528.25 257.00 524.57 Z" />
<path fill="#464846" d=" M 336.76 530.16 C 342.09 528.75 347.37 527.02 352.33 524.58 C 353.84 526.13 353.96 528.35 354.48 530.35 C 353.12 530.96 351.75 531.56 350.37 532.14 C 347.98 533.09 345.55 533.95 343.09 534.70 C 341.17 535.26 339.24 535.81 337.30 536.32 C 337.12 534.26 336.93 532.21 336.76 530.16 Z" />
<path fill="#030304" d=" M 250.25 527.04 C 251.53 527.59 253.14 527.80 253.97 529.06 C 255.35 530.67 254.75 532.94 254.91 534.89 C 250.76 535.70 248.06 530.24 250.25 527.04 Z" />
<path fill="#313231" d=" M 287.93 532.16 C 288.23 530.17 288.66 528.21 289.53 526.40 C 293.50 528.24 297.72 529.42 301.92 530.61 C 301.56 532.28 301.31 534.00 300.77 535.64 C 300.13 535.64 298.84 535.65 298.20 535.65 C 295.04 534.60 291.88 533.56 288.74 532.46 C 288.54 532.38 288.13 532.23 287.93 532.16 Z" />
<path fill="#080808" d=" M 265.08 528.82 C 266.82 529.23 268.98 529.23 270.09 530.89 C 271.50 532.49 271.16 534.75 271.28 536.73 C 270.12 536.77 268.97 536.82 267.82 536.89 C 266.32 535.50 265.20 533.77 264.64 531.81 C 264.75 531.06 264.97 529.57 265.08 528.82 Z" />
<path fill="#6c6c6c" d=" M 333.77 530.72 C 334.76 530.55 335.76 530.36 336.76 530.16 C 336.93 532.21 337.12 534.26 337.30 536.32 C 336.94 536.41 336.22 536.58 335.86 536.67 C 335.02 536.85 333.34 537.21 332.50 537.39 C 332.91 535.16 333.33 532.94 333.77 530.72 Z" />
<path fill="#eaeaea" d=" M 301.92 530.61 C 306.81 532.12 312.02 531.86 316.94 533.26 C 316.58 534.60 316.22 535.94 315.86 537.29 C 314.11 537.23 312.35 537.17 310.61 537.08 C 307.71 536.89 304.84 536.51 301.99 535.99 C 303.36 537.05 305.70 537.70 305.24 539.91 C 305.15 549.26 305.47 558.63 305.05 567.99 C 304.26 568.11 302.68 568.37 301.89 568.49 C 299.80 568.18 297.73 567.77 295.68 567.27 C 296.32 562.76 295.20 558.28 295.44 553.77 C 295.58 547.92 295.47 542.07 295.36 536.22 C 296.07 536.08 297.49 535.79 298.20 535.65 C 298.84 535.65 300.13 535.64 300.77 535.64 C 301.31 534.00 301.56 532.28 301.92 530.61 Z" />
<path fill="#8b8c8c" d=" M 325.94 532.62 C 328.49 531.74 331.11 531.12 333.77 530.72 C 333.33 532.94 332.91 535.16 332.50 537.39 C 332.25 537.45 331.73 537.56 331.48 537.61 C 330.11 537.89 328.75 538.19 327.39 538.49 C 327.31 548.43 327.50 558.38 327.26 568.32 C 325.93 568.09 324.60 567.86 323.27 567.64 C 323.44 557.80 323.14 547.96 323.41 538.12 C 324.28 536.30 325.12 534.46 325.94 532.62 Z" />
<path fill="#050505" d=" M 257.30 533.20 C 258.72 531.51 260.84 532.99 261.81 534.36 C 263.23 536.03 262.66 538.27 262.56 540.25 C 258.68 540.55 256.62 536.56 257.30 533.20 Z" />
<path fill="#d3d4d3" d=" M 288.21 564.99 C 288.64 554.15 287.95 543.28 288.74 532.46 C 291.88 533.56 295.04 534.60 298.20 535.65 C 297.49 535.79 296.07 536.08 295.36 536.22 C 295.47 542.07 295.58 547.92 295.44 553.77 C 295.20 558.28 296.32 562.76 295.68 567.27 C 293.15 566.63 290.67 565.85 288.21 564.99 Z" />
<path fill="#ced0cf" d=" M 343.09 534.70 C 345.55 533.95 347.98 533.09 350.37 532.14 C 350.73 541.81 350.15 551.52 351.10 561.18 C 348.59 562.28 346.05 563.33 343.46 564.23 C 343.82 560.59 343.84 556.94 343.70 553.30 C 343.44 547.10 344.01 540.87 343.09 534.70 Z" />
<path fill="#e5e7e6" d=" M 337.30 536.32 C 339.24 535.81 341.17 535.26 343.09 534.70 C 344.01 540.87 343.44 547.10 343.70 553.30 C 343.84 556.94 343.82 560.59 343.46 564.23 C 340.98 565.05 338.46 565.77 335.92 566.43 C 335.82 556.51 335.93 546.59 335.86 536.67 C 336.22 536.58 336.94 536.41 337.30 536.32 Z" />
<path fill="#c6c7c7" d=" M 301.99 535.99 C 304.84 536.51 307.71 536.89 310.61 537.08 C 309.20 547.76 310.00 558.51 310.27 569.23 C 307.46 569.18 304.66 568.93 301.89 568.49 C 302.68 568.37 304.26 568.11 305.05 567.99 C 305.47 558.63 305.15 549.26 305.24 539.91 C 305.70 537.70 303.36 537.05 301.99 535.99 Z" />
<path fill="#9b9c9c" d=" M 310.61 537.08 C 312.35 537.17 314.11 537.23 315.86 537.29 L 315.69 537.94 C 315.04 540.23 314.61 542.61 314.69 545.01 C 314.89 553.06 314.66 561.11 314.81 569.16 C 313.29 569.19 311.78 569.23 310.27 569.23 C 310.00 558.51 309.20 547.76 310.61 537.08 Z" />
<path fill="#d4d6d5" d=" M 331.48 537.61 C 331.73 537.56 332.25 537.45 332.50 537.39 C 333.34 537.21 335.02 536.85 335.86 536.67 C 335.93 546.59 335.82 556.51 335.92 566.43 C 334.57 566.76 333.22 567.07 331.87 567.39 C 331.06 557.46 332.71 547.52 331.48 537.61 Z" />
<path fill="#09090a" d=" M 264.26 537.87 C 264.87 537.69 266.10 537.35 266.71 537.17 C 268.47 538.35 270.65 539.75 270.86 542.10 C 270.96 543.44 271.23 545.27 269.48 545.60 C 267.95 545.61 266.68 544.42 265.31 543.88 C 264.67 541.92 264.41 539.89 264.26 537.87 Z" />
<path fill="#777978" d=" M 314.69 545.01 C 314.61 542.61 315.04 540.23 315.69 537.94 C 318.26 537.99 320.83 538.05 323.41 538.12 C 323.14 547.96 323.44 557.80 323.27 567.64 C 324.60 567.86 325.93 568.09 327.26 568.32 C 323.14 568.95 318.97 569.01 314.81 569.16 C 314.66 561.11 314.89 553.06 314.69 545.01 Z" />
<path fill="#aeb0af" d=" M 327.39 538.49 C 328.75 538.19 330.11 537.89 331.48 537.61 C 332.71 547.52 331.06 557.46 331.87 567.39 C 330.34 567.72 328.80 568.03 327.26 568.32 C 327.50 558.38 327.31 548.43 327.39 538.49 Z" />
</svg>
